<?xml version="1.0" encoding="utf-8"?>
<!-- Generator: Adobe Illustrator 15.1.0, SVG Export Plug-In . SVG Version: 6.00 Build 0)  -->
<!DOCTYPE svg PUBLIC "-//W3C//DTD SVG 1.1//EN" "http://www.w3.org/Graphics/SVG/1.1/DTD/svg11.dtd">
<svg version="1.1" id="Layer_3" xmlns="http://www.w3.org/2000/svg" xmlns:xlink="http://www.w3.org/1999/xlink" x="0px" y="0px"
	 width="24px" height="24px" viewBox="40.876 0 24 24" enable-background="new 40.876 0 24 24" xml:space="preserve">
<g id="layer1_2_" transform="translate(0,-540.36218)">
	<g id="g4305_2_">
		<g id="g4345_2_" transform="translate(28,-40.00001)">
			<path id="rect4510_2_" fill="#222222" d="M20.901,588.513c-0.342,0-0.649,0.071-0.925,0.215
				c-0.275,0.144-0.511,0.354-0.708,0.629c-0.198,0.275-0.349,0.613-0.453,1.013c-0.106,0.401-0.158,0.862-0.158,1.383
				c0,1.047,0.199,1.849,0.598,2.408c0.397,0.559,0.946,0.839,1.646,0.839c0.699,0,1.249-0.28,1.646-0.839
				c0.397-0.56,0.596-1.361,0.596-2.408c0-1.042-0.198-1.841-0.596-2.4C22.15,588.793,21.601,588.513,20.901,588.513z
				 M20.901,589.662c0.166,0,0.308,0.051,0.422,0.152s0.203,0.245,0.27,0.431c0.065,0.186,0.113,0.405,0.143,0.66
				c0.029,0.254,0.045,0.537,0.045,0.848s-0.016,0.595-0.045,0.853c-0.029,0.257-0.077,0.478-0.143,0.663
				c-0.066,0.186-0.155,0.329-0.27,0.431s-0.256,0.152-0.422,0.152c-0.168,0-0.307-0.051-0.417-0.152
				c-0.111-0.102-0.201-0.245-0.27-0.431c-0.069-0.186-0.118-0.406-0.147-0.663c-0.03-0.258-0.045-0.542-0.045-0.853
				s0.015-0.594,0.045-0.848c0.029-0.255,0.078-0.475,0.147-0.66c0.068-0.186,0.158-0.329,0.27-0.431
				C20.595,589.713,20.733,589.662,20.901,589.662z M27.39,590.98c-0.058,0-0.116,0.033-0.158,0.088
				c-0.041,0.055-0.065,0.133-0.065,0.211v5.563l-0.815-0.816c-0.055-0.056-0.133-0.086-0.211-0.085
				c-0.074,0.001-0.147,0.032-0.201,0.085l-0.822,0.822c-0.054,0.055-0.085,0.13-0.085,0.206s0.031,0.151,0.085,0.206L27.858,600
				c0.054,0.055,0.129,0.086,0.205,0.086s0.151-0.031,0.205-0.086l2.74-2.739c0.054-0.055,0.086-0.13,0.086-0.206
				s-0.032-0.151-0.086-0.206l-0.822-0.822c-0.053-0.055-0.129-0.085-0.204-0.085c-0.077,0-0.152,0.03-0.206,0.085l-0.815,0.816
				v-5.563c0-0.079-0.024-0.156-0.065-0.211c-0.042-0.055-0.101-0.088-0.159-0.088H27.39z M20.798,595.738
				c-0.377,0-0.698,0.068-0.964,0.203c-0.267,0.134-0.487,0.306-0.66,0.512c-0.174,0.205-0.301,0.434-0.382,0.685
				c-0.08,0.253-0.12,0.498-0.12,0.737c0,0.287,0.041,0.549,0.126,0.789c0.083,0.239,0.214,0.444,0.39,0.615
				c0.177,0.17,0.401,0.301,0.678,0.395c0.274,0.092,0.606,0.139,0.995,0.139c0.107,0,0.237-0.013,0.392-0.04
				c0.151-0.027,0.29-0.07,0.416-0.13c-0.084,0.263-0.199,0.481-0.346,0.655c-0.146,0.173-0.324,0.312-0.533,0.416
				c-0.21,0.105-0.452,0.18-0.728,0.225c-0.274,0.046-0.583,0.07-0.923,0.075c0.012,0.192,0.022,0.378,0.035,0.558
				c0.012,0.181,0.021,0.364,0.026,0.557c0.683-0.007,1.271-0.089,1.768-0.246c0.497-0.159,0.905-0.392,1.226-0.697
				c0.319-0.304,0.556-0.681,0.708-1.13c0.152-0.448,0.229-0.967,0.229-1.553c0-0.891-0.196-1.573-0.588-2.049
				C22.15,595.976,21.568,595.738,20.798,595.738z M20.834,596.851c0.179,0,0.33,0.042,0.453,0.121
				c0.122,0.081,0.219,0.192,0.29,0.332c0.073,0.142,0.123,0.306,0.153,0.493c0.03,0.188,0.049,0.392,0.054,0.606
				c0,0.018-0.001,0.039-0.004,0.063c-0.003,0.024-0.005,0.048-0.005,0.072v0.079c-0.071,0.048-0.182,0.086-0.332,0.112
				c-0.149,0.028-0.293,0.042-0.431,0.042c-0.358,0-0.617-0.078-0.776-0.233c-0.158-0.155-0.237-0.396-0.237-0.718
				c0-0.107,0.017-0.219,0.05-0.332c0.032-0.113,0.082-0.219,0.148-0.314c0.065-0.095,0.151-0.173,0.26-0.233
				C20.564,596.882,20.689,596.851,20.834,596.851z"/>
		</g>
	</g>
</g>
<g>
	<path d="M63.776,1h-4.9c0-0.6-0.4-1-1-1s-1,0.4-1,1h-8c0-0.6-0.399-1-1-1s-1,0.4-1,1h-4.899c-0.601,0-1.101,0.5-1.101,1.1v20.8
		c0,0.6,0.5,1.1,1.101,1.1h21.8c0.6,0,1.1-0.5,1.1-1.1V2.1C64.876,1.5,64.376,1,63.776,1z M62.876,22h-20V8h20V22z M62.876,7h-20V3
		h4v1c0,0.6,0.399,1,1,1s1-0.4,1-1V3h8v1c0,0.6,0.4,1,1,1s1-0.4,1-1V3h4V7z"/>
</g>
</svg>
