<?xml version="1.0" encoding="utf-8"?>
<!-- Generator: Adobe Illustrator 15.1.0, SVG Export Plug-In . SVG Version: 6.00 Build 0)  -->
<!DOCTYPE svg PUBLIC "-//W3C//DTD SVG 1.1//EN" "http://www.w3.org/Graphics/SVG/1.1/DTD/svg11.dtd">
<svg version="1.1" id="Ascending_1_" xmlns="http://www.w3.org/2000/svg" xmlns:xlink="http://www.w3.org/1999/xlink" x="0px"
	 y="0px" width="24px" height="24px" viewBox="84.876 0 24 24" enable-background="new 84.876 0 24 24" xml:space="preserve">
<g id="layer1_3_" transform="translate(0,-540.36218)">
	<g id="g4305_3_">
		<g id="g4345_3_" transform="translate(28,-40.00001)">
			<path id="rect4510_3_" fill="#222222" d="M64.794,588.507c-0.377,0-0.699,0.067-0.966,0.202s-0.487,0.306-0.66,0.513
				c-0.174,0.206-0.301,0.435-0.382,0.687s-0.12,0.497-0.12,0.736c0,0.287,0.041,0.551,0.125,0.79
				c0.084,0.24,0.214,0.445,0.391,0.615c0.177,0.171,0.402,0.302,0.677,0.396c0.275,0.092,0.609,0.138,0.998,0.138
				c0.107,0,0.238-0.014,0.391-0.041c0.152-0.027,0.293-0.07,0.418-0.131c-0.084,0.263-0.199,0.482-0.346,0.656
				s-0.324,0.313-0.535,0.418c-0.209,0.104-0.451,0.18-0.727,0.225s-0.585,0.07-0.926,0.076c0.012,0.191,0.023,0.377,0.036,0.557
				c0.012,0.18,0.021,0.365,0.026,0.557c0.683-0.006,1.273-0.088,1.77-0.246c0.498-0.16,0.906-0.393,1.227-0.697
				s0.557-0.682,0.709-1.131c0.154-0.449,0.23-0.966,0.23-1.553c0-0.893-0.197-1.576-0.59-2.052
				C66.147,588.745,65.565,588.507,64.794,588.507z M64.829,589.62c0.18,0,0.332,0.041,0.453,0.122
				c0.123,0.081,0.221,0.191,0.293,0.332s0.123,0.306,0.152,0.493c0.029,0.188,0.049,0.392,0.055,0.607
				c0,0.017-0.002,0.038-0.004,0.063c-0.004,0.023-0.006,0.048-0.006,0.071v0.08c-0.072,0.048-0.182,0.086-0.332,0.113
				s-0.293,0.04-0.432,0.04c-0.359,0-0.617-0.078-0.775-0.233c-0.16-0.155-0.24-0.396-0.24-0.718c0-0.108,0.018-0.219,0.051-0.332
				c0.033-0.114,0.082-0.219,0.148-0.314s0.152-0.174,0.26-0.233C64.56,589.65,64.687,589.62,64.829,589.62z M71.394,590.976
				c-0.061,0-0.119,0.033-0.16,0.088c-0.041,0.056-0.064,0.133-0.064,0.212v5.568l-0.818-0.816
				c-0.055-0.055-0.131-0.088-0.209-0.086c-0.074,0.002-0.148,0.033-0.201,0.086l-0.824,0.822c-0.053,0.055-0.084,0.131-0.084,0.207
				c0,0.074,0.031,0.15,0.084,0.205l2.744,2.742c0.055,0.055,0.129,0.086,0.205,0.086c0.078,0,0.152-0.031,0.207-0.086l2.742-2.742
				c0.055-0.055,0.086-0.131,0.086-0.205c0-0.076-0.031-0.152-0.086-0.207l-0.822-0.822c-0.055-0.055-0.131-0.086-0.205-0.086
				c-0.076,0-0.152,0.031-0.205,0.086l-0.818,0.816v-5.568c0-0.079-0.023-0.156-0.064-0.212c-0.043-0.055-0.102-0.088-0.16-0.088
				H71.394z M64.897,595.641c-0.342,0-0.65,0.07-0.926,0.215s-0.512,0.354-0.709,0.629c-0.198,0.275-0.35,0.613-0.454,1.014
				c-0.105,0.402-0.157,0.863-0.157,1.385c0,1.047,0.2,1.85,0.598,2.41c0.398,0.561,0.947,0.84,1.648,0.84
				c0.699,0,1.248-0.279,1.648-0.84c0.398-0.561,0.596-1.363,0.596-2.41c0-1.043-0.197-1.844-0.596-2.402
				C66.146,595.921,65.597,595.641,64.897,595.641z M64.897,596.79c0.168,0,0.309,0.051,0.422,0.152
				c0.115,0.104,0.203,0.246,0.27,0.432s0.113,0.406,0.145,0.66c0.029,0.256,0.045,0.539,0.045,0.85s-0.016,0.596-0.045,0.854
				c-0.031,0.256-0.078,0.477-0.145,0.664c-0.066,0.186-0.154,0.328-0.27,0.43c-0.113,0.102-0.254,0.154-0.422,0.154
				s-0.307-0.053-0.418-0.154s-0.201-0.244-0.27-0.43c-0.068-0.188-0.117-0.408-0.148-0.664c-0.029-0.258-0.045-0.543-0.045-0.854
				s0.016-0.594,0.045-0.85c0.031-0.254,0.08-0.475,0.148-0.66s0.158-0.328,0.27-0.432C64.591,596.841,64.729,596.79,64.897,596.79z
				"/>
			<g id="flowRoot4459-8_1_" transform="translate(-15.066204,701.19518)">
			</g>
		</g>
	</g>
</g>
<g>
	<path d="M107.776,1h-4.9c0-0.6-0.4-1-1-1s-1,0.4-1,1h-8c0-0.6-0.399-1-1-1s-1,0.4-1,1h-4.899c-0.601,0-1.101,0.5-1.101,1.1v20.8
		c0,0.6,0.5,1.1,1.101,1.1h21.8c0.6,0,1.1-0.5,1.1-1.1V2.1C108.876,1.5,108.376,1,107.776,1z M106.876,22h-20V8h20V22z M106.876,7
		h-20V3h4v1c0,0.6,0.399,1,1,1s1-0.4,1-1V3h8v1c0,0.6,0.4,1,1,1s1-0.4,1-1V3h4V7z"/>
</g>
</svg>
