<?xml version="1.0" encoding="UTF-8" standalone="no"?>
<!-- Created with Inkscape (http://www.inkscape.org/) -->

<svg
   xmlns:dc="http://purl.org/dc/elements/1.1/"
   xmlns:cc="http://creativecommons.org/ns#"
   xmlns:rdf="http://www.w3.org/1999/02/22-rdf-syntax-ns#"
   xmlns:svg="http://www.w3.org/2000/svg"
   xmlns="http://www.w3.org/2000/svg"
   xmlns:sodipodi="http://sodipodi.sourceforge.net/DTD/sodipodi-0.dtd"
   xmlns:inkscape="http://www.inkscape.org/namespaces/inkscape"
   version="1.1"
   id="svg2"
   xml:space="preserve"
   width="256"
   height="256"
   viewBox="0 0 256 256"
   sodipodi:docname="notificationSimple.ai.svg"
   inkscape:version="0.92.3 (2405546, 2018-03-11)"><metadata
     id="metadata8"><rdf:RDF><cc:Work
         rdf:about=""><dc:format>image/svg+xml</dc:format><dc:type
           rdf:resource="http://purl.org/dc/dcmitype/StillImage" /><dc:title></dc:title></cc:Work></rdf:RDF></metadata><defs
     id="defs6"><clipPath
       clipPathUnits="userSpaceOnUse"
       id="clipPath18"><path
         d="M 0,192 H 192 V 0 H 0 Z"
         id="path16"
         inkscape:connector-curvature="0" /></clipPath></defs><sodipodi:namedview
     pagecolor="#ffffff"
     bordercolor="#666666"
     borderopacity="1"
     objecttolerance="10"
     gridtolerance="10"
     guidetolerance="10"
     inkscape:pageopacity="0"
     inkscape:pageshadow="2"
     inkscape:window-width="3773"
     inkscape:window-height="2082"
     id="namedview4"
     showgrid="false"
     inkscape:zoom="5.2149125"
     inkscape:cx="90.066868"
     inkscape:cy="114.2881"
     inkscape:window-x="3907"
     inkscape:window-y="41"
     inkscape:window-maximized="1"
     inkscape:current-layer="g10" /><g
     id="g10"
     inkscape:groupmode="layer"
     inkscape:label="CuratorNotification"
     transform="matrix(1.3333333,0,0,-1.3333333,0,256)"><g
       id="g12"><g
         id="g14"
         clip-path="url(#clipPath18)"><g
           id="g20"
           transform="translate(184.7881,81.377)"><path
             style="fill:#2b327a;fill-opacity:1;stroke:#2b327a;stroke-width:0;stroke-linecap:butt;stroke-linejoin:miter;stroke-miterlimit:10;stroke-dasharray:none;stroke-opacity:0"
             d="M 126.82031 9.0722656 C 117.4106 9.144987 108.06646 10.321615 98.984375 12.550781 L 99.044922 12.654297 C 88.32815 15.305672 77.798828 19.454057 67.765625 25.25 C 39.801626 41.395333 20.779828 67.076501 12.423828 95.8125 L 12.539062 95.8125 C 9.4772743 106.41827 7.8105469 117.60871 7.8105469 129.19922 C 7.8105469 161.48855 20.539334 190.80358 41.25 212.40625 L 41.306641 212.30664 C 48.958876 220.2599 57.814997 227.30234 67.853516 233.0957 C 95.818848 249.24104 127.56615 252.87552 156.63281 245.74219 L 156.57617 245.64258 C 167.28841 242.98987 177.81654 238.83985 187.85156 233.04492 C 215.81556 216.90092 234.84065 191.2178 243.19531 162.48047 L 243.07812 162.48047 C 244.48479 157.6058 245.59143 152.60605 246.38477 147.49805 L 156.08203 147.49805 L 147.33594 162.75 L 108.47266 162.85742 L 88.945312 129.25391 L 108.28125 95.544922 L 147.14453 95.4375 L 156.12891 110.89844 L 177.07812 110.89844 L 177.49805 110.89844 L 246.43555 110.89844 C 242.63155 85.857105 231.11109 63.348765 214.37109 45.884766 L 214.31445 45.988281 C 206.65979 38.034948 197.79834 30.990599 187.76367 25.197266 C 168.53751 14.098266 147.52168 8.9122786 126.82031 9.0722656 z "
             transform="matrix(0.75000002,0,0,-0.75000002,-184.7881,110.623)"
             id="path22" /></g><g
           id="g24"
           transform="translate(30.667,33.0879)" /><g
           id="g28"
           transform="translate(9.5225,120.5718)" /><g
           id="g32"
           transform="translate(50.8242,173.063)" /><g
           id="g36"
           transform="translate(160.7783,157.5859)" /></g></g></g></svg>