<?xml version="1.0" ?><svg height="512" id="svg2" version="1.1" width="512" xmlns="http://www.w3.org/2000/svg" xmlns:cc="http://creativecommons.org/ns#" xmlns:dc="http://purl.org/dc/elements/1.1/" xmlns:inkscape="http://www.inkscape.org/namespaces/inkscape" xmlns:rdf="http://www.w3.org/1999/02/22-rdf-syntax-ns#" xmlns:sodipodi="http://sodipodi.sourceforge.net/DTD/sodipodi-0.dtd" xmlns:svg="http://www.w3.org/2000/svg"><defs id="defs4"/><g id="layer1" transform="translate(0,-540.36218)"><g id="g4305"><g id="g4345" transform="translate(28,-40.00001)"><g id="flowRoot4459" style="font-size:50px;font-style:normal;font-variant:normal;font-weight:normal;font-stretch:normal;text-align:start;line-height:125%;letter-spacing:0px;word-spacing:0px;writing-mode:lr-tb;text-anchor:start;fill:#000000;fill-opacity:1;stroke:none;font-family:verdana;-inkscape-font-specification:verdana" transform="translate(-38.018475,702.54563)"><path d="M 61.1875 32.0625 L 61.1875 71.375 L 154.46875 71.375 C 146.66836 80.77458 138.22525 91.41079 129.125 103.3125 C 120.02459 115.21448 111.0794 127.5205 102.28125 140.21875 C 93.482985 152.9172 85.039878 165.50007 76.9375 178 C 68.83506 190.50004 61.971907 201.85746 56.375 212.0625 L 56.375 239.96875 L 219.875 239.96875 L 219.875 200.65625 L 113.96875 200.65625 C 121.17083 188.65679 129.39262 176.07391 138.59375 162.875 C 147.7947 149.67623 157.10047 136.86814 166.5 124.46875 C 175.89928 112.06958 184.9829 100.62624 193.78125 90.125 C 202.57932 79.62406 210.191 71.06682 216.59375 64.46875 L 216.59375 32.0625 L 61.1875 32.0625 z M 355.125 110.0625 C 353.16156 110.06276 351.20086 111.14884 349.8125 113 C 348.42413 114.85115 347.62519 117.44458 347.625 120.0625 L 347.625 306.0625 L 320.34375 278.78125 C 318.51036 276.94915 315.90412 275.89905 313.3125 275.9375 C 310.81985 275.9765 308.35712 277.01905 306.59375 278.78125 L 279.09375 306.28125 C 277.29345 308.08088 276.25 310.61072 276.25 313.15625 C 276.25 315.70177 277.29345 318.23161 279.09375 320.03125 L 370.75 411.65625 C 372.54965 413.45653 375.07948 414.5 377.625 414.5 C 380.17053 414.5 382.70037 413.45653 384.5 411.65625 L 476.125 320.03125 C 477.92528 318.23162 479 315.70178 479 313.15625 C 479 310.61073 477.92528 308.08089 476.125 306.28125 L 448.625 278.78125 C 446.82593 276.9856 444.32311 275.9375 441.78125 275.9375 C 439.23941 275.9375 436.70533 276.9856 434.90625 278.78125 L 407.625 306.0625 L 407.625 120.0625 C 407.6248 117.44458 406.82587 114.85115 405.4375 113 C 404.04913 111.14884 402.08844 110.06276 400.125 110.0625 L 355.125 110.0625 z M 115.78125 272.03125 C 108.78044 286.42964 102.03142 301.18133 95.53125 316.28125 C 89.030945 331.38149 82.420358 347.32521 75.71875 364.125 C 69.017051 380.92503 62.185149 398.84359 55.1875 417.84375 C 48.189801 436.84404 40.800282 457.53762 33 479.9375 L 81.59375 479.9375 C 83.797065 472.73536 86.23969 465.31764 88.9375 457.71875 C 91.635194 450.11991 94.27484 442.53642 96.875 434.9375 L 177.875 434.9375 C 180.47495 442.53642 183.14584 450.11991 185.84375 457.71875 C 188.54135 465.31764 190.98397 472.73536 193.1875 479.9375 L 243.28125 479.9375 C 235.48075 457.53762 228.09429 436.84404 221.09375 417.84375 C 214.09284 398.84359 207.22968 380.92503 200.53125 364.125 C 193.83248 347.32521 187.19455 331.38149 180.59375 316.28125 C 173.99265 301.18133 167.26793 286.42964 160.46875 272.03125 L 115.78125 272.03125 z M 137.09375 319.125 C 138.29603 322.12809 139.87599 326.23745 141.875 331.4375 C 143.87379 336.63783 146.23658 342.63832 148.9375 349.4375 C 151.63818 356.23694 154.46874 363.73754 157.46875 371.9375 C 160.46849 380.13767 163.58287 388.7474 166.78125 397.75 L 107.6875 397.75 C 110.88566 388.7474 114.02433 380.13767 117.125 371.9375 C 120.22549 363.73754 123.08731 356.23694 125.6875 349.4375 C 128.2875 342.63832 130.59475 336.63783 132.59375 331.4375 C 134.59255 326.23745 136.09267 322.12809 137.09375 319.125 z " id="path5089" style="font-size:300px;font-weight:bold;font-family:Ubuntu;-inkscape-font-specification:Ubuntu Bold;fill:#222222;fill-opacity:1;stroke:none;stroke-opacity:1" transform="translate(10.018475,-122.18344)"/></g><g id="flowRoot4459-1" style="font-size:50px;font-style:normal;font-variant:normal;font-weight:normal;font-stretch:normal;text-align:start;line-height:125%;letter-spacing:0px;word-spacing:0px;writing-mode:lr-tb;text-anchor:start;fill:#000000;fill-opacity:1;stroke:none;font-family:verdana;-inkscape-font-specification:verdana" transform="translate(-22.115765,462.57961)"/></g></g></g></svg>